<mxfile host="app.diagrams.net" agent="Mozilla/5.0 (Macintosh; Intel Mac OS X 10_15_7) AppleWebKit/537.36 (KHTML, like Gecko) Chrome/134.0.0.0 Safari/537.36" version="26.0.5">
  <diagram name="Page-1" id="yT-RboIMUqdwC8dJ1n8j">
    <mxGraphModel dx="745" dy="571" grid="1" gridSize="10" guides="1" tooltips="1" connect="1" arrows="1" fold="1" page="1" pageScale="1" pageWidth="827" pageHeight="1169" math="0" shadow="0">
      <root>
        <mxCell id="0" />
        <mxCell id="1" parent="0" />
        <mxCell id="dG77y0bMdhcw6cKIk8m4-41" value="" style="shape=callout;whiteSpace=wrap;html=1;perimeter=calloutPerimeter;size=10;position=0.48;position2=0.48;" vertex="1" parent="1">
          <mxGeometry x="60" y="139" width="186" height="62.75" as="geometry" />
        </mxCell>
        <mxCell id="dG77y0bMdhcw6cKIk8m4-38" value="" style="shape=callout;whiteSpace=wrap;html=1;perimeter=calloutPerimeter;flipV=1;size=14;position=0.48;" vertex="1" parent="1">
          <mxGeometry x="288.5" y="316" width="271.5" height="84" as="geometry" />
        </mxCell>
        <mxCell id="dG77y0bMdhcw6cKIk8m4-14" style="edgeStyle=orthogonalEdgeStyle;rounded=0;orthogonalLoop=1;jettySize=auto;html=1;exitX=1;exitY=0.5;exitDx=0;exitDy=0;" edge="1" parent="1" source="dG77y0bMdhcw6cKIk8m4-1" target="dG77y0bMdhcw6cKIk8m4-9">
          <mxGeometry relative="1" as="geometry">
            <Array as="points">
              <mxPoint x="350" y="243" />
              <mxPoint x="350" y="277" />
            </Array>
          </mxGeometry>
        </mxCell>
        <mxCell id="dG77y0bMdhcw6cKIk8m4-1" value="Flask APP" style="swimlane;whiteSpace=wrap;html=1;" vertex="1" parent="1">
          <mxGeometry x="175.5" y="200.75" width="100" height="84" as="geometry" />
        </mxCell>
        <mxCell id="dG77y0bMdhcw6cKIk8m4-3" value="" style="sketch=0;outlineConnect=0;fontColor=#232F3E;gradientColor=none;fillColor=#232F3D;strokeColor=none;dashed=0;verticalLabelPosition=bottom;verticalAlign=top;align=center;html=1;fontSize=12;fontStyle=0;aspect=fixed;pointerEvents=1;shape=mxgraph.aws4.user;" vertex="1" parent="1">
          <mxGeometry x="110" y="207.75" width="58" height="58" as="geometry" />
        </mxCell>
        <mxCell id="dG77y0bMdhcw6cKIk8m4-5" value="RAG" style="shape=cylinder3;whiteSpace=wrap;html=1;boundedLbl=1;backgroundOutline=1;size=15;" vertex="1" parent="1">
          <mxGeometry x="488.5" y="126" width="70" height="80" as="geometry" />
        </mxCell>
        <mxCell id="dG77y0bMdhcw6cKIk8m4-6" value="Knowledge" style="shape=cylinder3;whiteSpace=wrap;html=1;boundedLbl=1;backgroundOutline=1;size=15;" vertex="1" parent="1">
          <mxGeometry x="490" y="234" width="70" height="80" as="geometry" />
        </mxCell>
        <mxCell id="dG77y0bMdhcw6cKIk8m4-7" value="Lecture records&lt;div&gt;Textbooks&lt;/div&gt;&lt;div&gt;&amp;nbsp;- Main textbook&lt;/div&gt;&lt;div&gt;&amp;nbsp;- Supplementary textbook&lt;br&gt;&lt;div&gt;&lt;br&gt;&lt;/div&gt;&lt;/div&gt;" style="text;html=1;align=left;verticalAlign=middle;resizable=0;points=[];autosize=1;strokeColor=none;fillColor=none;" vertex="1" parent="1">
          <mxGeometry x="570" y="126" width="160" height="90" as="geometry" />
        </mxCell>
        <mxCell id="dG77y0bMdhcw6cKIk8m4-8" value="&lt;div&gt;&lt;div&gt;Past exam questions&lt;/div&gt;&lt;/div&gt;&lt;div&gt;Main learning material&lt;/div&gt;" style="text;html=1;align=left;verticalAlign=middle;resizable=0;points=[];autosize=1;strokeColor=none;fillColor=none;" vertex="1" parent="1">
          <mxGeometry x="580" y="254" width="140" height="40" as="geometry" />
        </mxCell>
        <mxCell id="dG77y0bMdhcw6cKIk8m4-35" value="" style="edgeStyle=orthogonalEdgeStyle;rounded=0;orthogonalLoop=1;jettySize=auto;html=1;" edge="1" parent="1" source="dG77y0bMdhcw6cKIk8m4-9" target="dG77y0bMdhcw6cKIk8m4-6">
          <mxGeometry relative="1" as="geometry">
            <Array as="points">
              <mxPoint x="460" y="277" />
              <mxPoint x="460" y="270" />
            </Array>
          </mxGeometry>
        </mxCell>
        <mxCell id="dG77y0bMdhcw6cKIk8m4-9" value="" style="sketch=0;verticalLabelPosition=bottom;sketch=0;aspect=fixed;html=1;verticalAlign=top;strokeColor=none;fillColor=#000000;align=center;outlineConnect=0;pointerEvents=1;shape=mxgraph.citrix2.bot_mitigation;strokeWidth=7;" vertex="1" parent="1">
          <mxGeometry x="389" y="254" width="50" height="45.885" as="geometry" />
        </mxCell>
        <mxCell id="dG77y0bMdhcw6cKIk8m4-11" value="" style="sketch=0;outlineConnect=0;fontColor=#232F3E;gradientColor=none;fillColor=#000000;strokeColor=none;dashed=0;verticalLabelPosition=bottom;verticalAlign=top;align=center;html=1;fontSize=12;fontStyle=0;aspect=fixed;pointerEvents=1;shape=mxgraph.aws4.redshift_query_editor_v20_light;" vertex="1" parent="1">
          <mxGeometry x="393" y="139" width="37" height="37" as="geometry" />
        </mxCell>
        <mxCell id="dG77y0bMdhcw6cKIk8m4-13" value="&lt;div&gt;・Ask a question&lt;/div&gt;&lt;div&gt;&lt;span style=&quot;background-color: transparent; color: light-dark(rgb(0, 0, 0), rgb(255, 255, 255));&quot;&gt;・Request practice questions&lt;/span&gt;&lt;/div&gt;" style="text;html=1;align=left;verticalAlign=middle;resizable=0;points=[];autosize=1;strokeColor=none;fillColor=none;" vertex="1" parent="1">
          <mxGeometry x="66" y="143.75" width="180" height="40" as="geometry" />
        </mxCell>
        <mxCell id="dG77y0bMdhcw6cKIk8m4-15" value="CrewAI" style="text;html=1;align=center;verticalAlign=middle;resizable=0;points=[];autosize=1;strokeColor=none;fillColor=none;" vertex="1" parent="1">
          <mxGeometry x="381.5" y="294" width="60" height="30" as="geometry" />
        </mxCell>
        <mxCell id="dG77y0bMdhcw6cKIk8m4-16" value="LlamaIndex&lt;br&gt;(Query Engine)" style="text;html=1;align=center;verticalAlign=middle;resizable=0;points=[];autosize=1;strokeColor=none;fillColor=none;" vertex="1" parent="1">
          <mxGeometry x="361.5" y="176" width="100" height="40" as="geometry" />
        </mxCell>
        <mxCell id="dG77y0bMdhcw6cKIk8m4-23" value="Advisor" style="text;html=1;align=center;verticalAlign=middle;resizable=0;points=[];autosize=1;strokeColor=none;fillColor=none;" vertex="1" parent="1">
          <mxGeometry x="319" y="334" width="60" height="30" as="geometry" />
        </mxCell>
        <mxCell id="dG77y0bMdhcw6cKIk8m4-24" value="Question Setter&amp;nbsp;" style="text;html=1;align=center;verticalAlign=middle;resizable=0;points=[];autosize=1;strokeColor=none;fillColor=none;" vertex="1" parent="1">
          <mxGeometry x="440" y="369" width="110" height="30" as="geometry" />
        </mxCell>
        <mxCell id="dG77y0bMdhcw6cKIk8m4-25" value="Knowledge Expert" style="text;html=1;align=center;verticalAlign=middle;resizable=0;points=[];autosize=1;strokeColor=none;fillColor=none;" vertex="1" parent="1">
          <mxGeometry x="440" y="334" width="120" height="30" as="geometry" />
        </mxCell>
        <mxCell id="dG77y0bMdhcw6cKIk8m4-27" value="Web Designer" style="text;html=1;align=center;verticalAlign=middle;resizable=0;points=[];autosize=1;strokeColor=none;fillColor=none;" vertex="1" parent="1">
          <mxGeometry x="320.5" y="369" width="100" height="30" as="geometry" />
        </mxCell>
        <mxCell id="dG77y0bMdhcw6cKIk8m4-30" value="" style="shape=image;html=1;verticalAlign=top;verticalLabelPosition=bottom;labelBackgroundColor=#ffffff;imageAspect=0;aspect=fixed;image=https://cdn0.iconfinder.com/data/icons/phosphor-regular-vol-4/256/robot-128.png;flipV=0;" vertex="1" parent="1">
          <mxGeometry x="297.5" y="334" width="30" height="30" as="geometry" />
        </mxCell>
        <mxCell id="dG77y0bMdhcw6cKIk8m4-32" value="" style="shape=image;html=1;verticalAlign=top;verticalLabelPosition=bottom;labelBackgroundColor=#ffffff;imageAspect=0;aspect=fixed;image=https://cdn0.iconfinder.com/data/icons/phosphor-regular-vol-4/256/robot-128.png;flipV=0;" vertex="1" parent="1">
          <mxGeometry x="297.5" y="369" width="30" height="30" as="geometry" />
        </mxCell>
        <mxCell id="dG77y0bMdhcw6cKIk8m4-33" value="" style="shape=image;html=1;verticalAlign=top;verticalLabelPosition=bottom;labelBackgroundColor=#ffffff;imageAspect=0;aspect=fixed;image=https://cdn0.iconfinder.com/data/icons/phosphor-regular-vol-4/256/robot-128.png;flipV=0;" vertex="1" parent="1">
          <mxGeometry x="418.5" y="334" width="30" height="30" as="geometry" />
        </mxCell>
        <mxCell id="dG77y0bMdhcw6cKIk8m4-34" value="" style="shape=image;html=1;verticalAlign=top;verticalLabelPosition=bottom;labelBackgroundColor=#ffffff;imageAspect=0;aspect=fixed;image=https://cdn0.iconfinder.com/data/icons/phosphor-regular-vol-4/256/robot-128.png;flipV=0;" vertex="1" parent="1">
          <mxGeometry x="418.5" y="369" width="30" height="30" as="geometry" />
        </mxCell>
        <mxCell id="dG77y0bMdhcw6cKIk8m4-36" style="edgeStyle=orthogonalEdgeStyle;rounded=0;orthogonalLoop=1;jettySize=auto;html=1;entryX=0;entryY=0;entryDx=0;entryDy=52.5;entryPerimeter=0;" edge="1" parent="1" source="dG77y0bMdhcw6cKIk8m4-11" target="dG77y0bMdhcw6cKIk8m4-5">
          <mxGeometry relative="1" as="geometry">
            <Array as="points">
              <mxPoint x="460" y="157" />
              <mxPoint x="460" y="178" />
            </Array>
          </mxGeometry>
        </mxCell>
        <mxCell id="dG77y0bMdhcw6cKIk8m4-37" style="edgeStyle=orthogonalEdgeStyle;rounded=0;orthogonalLoop=1;jettySize=auto;html=1;entryX=0;entryY=0;entryDx=0;entryDy=52.5;entryPerimeter=0;" edge="1" parent="1" source="dG77y0bMdhcw6cKIk8m4-9" target="dG77y0bMdhcw6cKIk8m4-5">
          <mxGeometry relative="1" as="geometry">
            <Array as="points">
              <mxPoint x="460" y="277" />
              <mxPoint x="460" y="179" />
            </Array>
          </mxGeometry>
        </mxCell>
        <mxCell id="dG77y0bMdhcw6cKIk8m4-40" style="edgeStyle=orthogonalEdgeStyle;rounded=0;orthogonalLoop=1;jettySize=auto;html=1;startArrow=classic;startFill=1;exitX=1;exitY=0.5;exitDx=0;exitDy=0;" edge="1" parent="1" source="dG77y0bMdhcw6cKIk8m4-1">
          <mxGeometry relative="1" as="geometry">
            <mxPoint x="300" y="241" as="sourcePoint" />
            <mxPoint x="380" y="161" as="targetPoint" />
            <Array as="points">
              <mxPoint x="280" y="243" />
              <mxPoint x="350" y="243" />
              <mxPoint x="350" y="161" />
            </Array>
          </mxGeometry>
        </mxCell>
        <mxCell id="dG77y0bMdhcw6cKIk8m4-44" value="Result" style="text;html=1;align=center;verticalAlign=middle;resizable=0;points=[];autosize=1;strokeColor=none;fillColor=none;" vertex="1" parent="1">
          <mxGeometry x="280" y="243" width="60" height="30" as="geometry" />
        </mxCell>
      </root>
    </mxGraphModel>
  </diagram>
</mxfile>
